<svg width="113" height="43" viewBox="0 0 113 43" fill="none" xmlns="http://www.w3.org/2000/svg">
<path d="M10.32 0H43V32.68C43 38.3797 38.3797 43 32.68 43H0V10.32C0 4.62035 4.62035 0 10.32 0Z" fill="#7A56E8"/>
<path d="M34.0314 15.5739C33.6076 13.702 29.3058 12.6643 27.0842 13.7731C26.2863 14.1715 25.428 15.0117 24.7511 15.883H18.2492C17.5722 15.0117 16.714 14.1715 15.9161 13.7731C13.6942 12.6643 9.3924 13.702 8.96855 15.5739C8.28851 18.5749 6.24785 29.1777 9.29059 29.6353C12.1222 30.0614 14.9923 27.526 16.9658 24.6086H26.0345C28.0077 27.526 30.878 30.0614 33.7094 29.6353C36.7521 29.1777 34.7115 18.5749 34.0314 15.5739ZM13.1713 20.9005C12.6439 20.9005 12.1381 20.691 11.7651 20.3181C11.3922 19.9451 11.1827 19.4393 11.1827 18.9119C11.1827 18.3844 11.3922 17.8786 11.7651 17.5057C12.1381 17.1327 12.6439 16.9232 13.1713 16.9232C13.6988 16.9232 14.2046 17.1327 14.5775 17.5057C14.9505 17.8786 15.16 18.3844 15.16 18.9119C15.16 19.4393 14.9505 19.9451 14.5775 20.3181C14.2046 20.691 13.6988 20.9005 13.1713 20.9005ZM29.8286 20.9005C29.4353 20.9005 29.0508 20.7839 28.7238 20.5654C28.3968 20.3469 28.1419 20.0363 27.9914 19.6729C27.8409 19.3095 27.8015 18.9097 27.8782 18.5239C27.9549 18.1381 28.1443 17.7838 28.4225 17.5057C28.7006 17.2276 29.0549 17.0382 29.4407 16.9614C29.8264 16.8847 30.2263 16.9241 30.5897 17.0746C30.953 17.2251 31.2636 17.48 31.4822 17.807C31.7007 18.1341 31.8173 18.5185 31.8173 18.9119C31.8174 19.173 31.766 19.4317 31.6661 19.673C31.5662 19.9143 31.4197 20.1335 31.235 20.3182C31.0503 20.5029 30.8311 20.6494 30.5898 20.7493C30.3484 20.8492 30.0898 20.9006 29.8286 20.9005Z" fill="white"/>
<path d="M64.2263 7.79703C63.1435 6.82048 61.6129 6.33474 59.6345 6.33474H54.7341V22.5084H57.9193V17.3879H60.2063C61.5396 17.3879 62.6274 17.1172 63.4699 16.5758C64.3123 16.0319 64.9195 15.3412 65.2939 14.4988C65.6658 13.6563 65.8531 12.7506 65.8531 11.7842C65.8531 10.0992 65.3117 8.77104 64.2263 7.79703ZM61.6332 13.884C61.2689 14.1547 60.7856 14.2888 60.1835 14.2888H57.9193V9.41111H60.2063C61.1727 9.41111 61.8254 9.67928 62.1619 10.2131C62.4984 10.7469 62.6679 11.301 62.6679 11.8727C62.6679 12.2092 62.5869 12.5608 62.425 12.9277C62.2631 13.2945 62 13.6108 61.6332 13.884ZM84.3568 23.2118L90.5981 6.44353H87.1701L84.4226 15.4323L80.7972 6.44353H77.6323L78.9074 9.63121L76.4458 15.8067L73.2606 6.44353H69.5239L76.0283 23.2548L80.5113 13.631L84.3568 23.2118ZM112.244 5.67443H112.201L103.804 17.2994L95.6073 5.67443H95.5871V22.5084H98.6634V15.278L103.738 22.2883H103.784L109.059 14.7948V22.5084H112.244V5.67443Z" fill="#030303"/>
</svg>
